<?xml version="1.0" encoding="utf-8"?>
<!-- Generator: Adobe Illustrator 27.5.0, SVG Export Plug-In . SVG Version: 6.00 Build 0)  -->
<svg version="1.1" id="Layer_1" xmlns="http://www.w3.org/2000/svg" xmlns:xlink="http://www.w3.org/1999/xlink" x="0px" y="0px"
	 viewBox="0 0 2500 2500" style="enable-background:new 0 0 2500 2500;" xml:space="preserve">
<rect style="fill:#FFFFFF;" width="2500" height="2500"/>
<g>
	<g>
		<g>
			
				<linearGradient id="SVGID_1_" gradientUnits="userSpaceOnUse" x1="1633.2971" y1="2033.7241" x2="836.0444" y2="652.842" gradientTransform="matrix(0.8736 0.4866 -0.4866 0.8736 791.0295 -448.4962)">
				<stop  offset="0.1593" style="stop-color:#ABC7FF"/>
				<stop  offset="1" style="stop-color:#D1E3FF"/>
			</linearGradient>
			<path style="fill:url(#SVGID_1_);" d="M1893.962,1639.648c-186.512,165.647-199.27,516.517-575.232,396.907
				c-136.495-43.425-192.1-152.4-349.844-148.285c-279.147,7.281-395.3-74.21-436.216-219.221
				c-12.287-43.544,26.358-204.984-20.281-282.525c-101.026-167.967-69.24-317.422,49.025-452.214
				c62.181-70.871,162.915-86.078,236.584-116.374c86.287-35.484,138.048-87.749,198.563-139.035
				c269.531-228.426,548.142-164.145,716.723-45.044c142.236,100.489,176.678,269.055,174.954,383.643
				C1884.723,1251.172,2182.291,1383.573,1893.962,1639.648z M1927.513,1807.222c16.855-31.008,5.382-69.807-25.624-86.661
				c-31.008-16.855-69.808-5.384-86.663,25.624c-16.855,31.005-5.38,69.808,25.624,86.663
				C1871.859,1849.702,1910.659,1838.228,1927.513,1807.222z M1111.834,2017.634c-13.213-44.686-60.15-70.2-104.836-56.987
				c-44.686,13.214-70.2,60.15-56.987,104.837c13.213,44.686,60.149,70.2,104.836,56.987
				C1099.534,2109.258,1125.047,2062.321,1111.834,2017.634z M689.447,628.603c5.169,18.165,24.087,28.701,42.253,23.532
				c18.165-5.17,28.701-24.088,23.532-42.253c-5.17-18.166-24.088-28.702-42.253-23.532
				C694.812,591.52,684.276,610.437,689.447,628.603z M1958.227,1009.995c-18.224,23.81-13.696,57.889,10.116,76.113
				c23.812,18.224,57.889,13.695,76.113-10.117c18.224-23.81,13.695-57.888-10.116-76.113
				C2010.53,981.655,1976.453,986.184,1958.227,1009.995z M779.953,663.02c-12.865,33.842,4.142,71.709,37.987,84.573
				c33.844,12.865,71.709-4.142,84.573-37.986c12.865-33.842-4.143-71.708-37.986-84.574
				C830.683,612.17,792.819,629.176,779.953,663.02z M1946.721,913.147c-9.548,12.476-7.176,30.33,5.301,39.878
				c12.474,9.548,30.33,7.175,39.877-5.3c9.549-12.475,7.175-30.33-5.3-39.879C1974.124,898.299,1956.269,900.671,1946.721,913.147z
				 M415.675,1629.415c-4.865,12.797,1.567,27.115,14.364,31.979c12.796,4.865,27.114-1.566,31.979-14.364
				c4.865-12.797-1.566-27.115-14.364-31.979C434.858,1610.186,420.539,1616.618,415.675,1629.415z M492.881,1541.195
				c16.569-30.482,5.291-68.625-25.192-85.194c-30.481-16.57-68.624-5.292-85.194,25.191c-16.57,30.482-5.291,68.625,25.19,85.195
				C438.167,1582.955,476.311,1571.678,492.881,1541.195z"/>
		</g>
	</g>
	<g>
		<g>
			<g>
				<g>
					<g>
						<path style="fill:#FFFFFF;" d="M1670.857,1773.455H825.551c-20.845,0-37.691-16.917-37.691-37.761V899.601
							c0-20.844,16.846-37.691,37.691-37.691h845.305c20.844,0,37.763,16.848,37.763,37.691v836.093
							C1708.62,1756.539,1691.701,1773.455,1670.857,1773.455z"/>
					</g>
				</g>
			</g>
		</g>
		<g>
			<g>
				<g>
					<g>
						<path style="fill:#ACC7FD;" d="M1708.62,950.969v-51.368c0-20.844-16.919-37.692-37.763-37.692H825.551
							c-20.845,0-37.69,16.848-37.69,37.692v51.368H1708.62z"/>
					</g>
				</g>
			</g>
		</g>
		<g>
			<g>
				<g>
					<path style="fill:#D0DCEF;" d="M1592.989,1563.061H903.492c-13.032,0-23.596-10.564-23.596-23.596l0,0
						c0-13.032,10.565-23.596,23.596-23.596h689.497c13.032,0,23.596,10.564,23.596,23.596l0,0
						C1616.584,1552.496,1606.02,1563.061,1592.989,1563.061z"/>
					<path style="fill:#F56990;" d="M1454.282,1539.464c0-13.032-10.564-23.596-23.596-23.596H903.492
						c-13.032,0-23.596,10.564-23.596,23.596l0,0c0,13.032,10.564,23.596,23.596,23.596h527.194
						C1443.718,1563.061,1454.282,1552.496,1454.282,1539.464L1454.282,1539.464z"/>
				</g>
				<g>
					<path style="fill:#B1C5E5;" d="M1100.699,1593.422v59.839h-11.206l-1.428-3.264c-3.577,3.01-8.139,4.751-13.261,4.751
						c-13.49,0-23.099-9.806-23.099-23.469c0-13.663,9.609-23.423,23.099-23.423c4.059,0,7.774,1.095,10.924,3.053v-17.487H1100.699
						z M1086.671,1631.28c0-5.741-4.169-10.061-9.841-10.061c-5.672,0-9.842,4.32-9.842,10.061s4.169,10.061,9.842,10.061
						C1082.502,1641.34,1086.671,1637.02,1086.671,1631.28z"/>
					<path style="fill:#B1C5E5;" d="M1155.498,1630.864c0,1.324-0.116,2.649-0.313,4.009h-32.645
						c0.991,5.042,4.194,7.651,8.975,7.651c3.537,0,6.493-1.55,7.948-4.123h15.069c-3.094,10.033-11.987,16.302-23.017,16.302
						c-13.717,0-23.88-10.026-23.88-23.457c0-13.478,10.081-23.389,23.88-23.389c14.171,0,23.983,10.11,23.983,23.005
						L1155.498,1630.864z M1122.808,1626.487h17.772c-1.328-4.394-4.496-6.764-9.065-6.764
						C1127.101,1619.723,1124.033,1622.12,1122.808,1626.487z"/>
					<path style="fill:#B1C5E5;" d="M1162.384,1593.422h15.143v59.839h-15.143V1593.422z"/>
					<path style="fill:#B1C5E5;" d="M1232.354,1630.864c0,1.324-0.116,2.649-0.313,4.009h-32.645
						c0.991,5.042,4.194,7.651,8.975,7.651c3.537,0,6.493-1.55,7.948-4.123h15.069c-3.094,10.033-11.987,16.302-23.017,16.302
						c-13.717,0-23.88-10.026-23.88-23.457c0-13.478,10.081-23.389,23.88-23.389c14.171,0,23.983,10.11,23.983,23.005
						L1232.354,1630.864z M1199.663,1626.487h17.772c-1.328-4.394-4.496-6.764-9.065-6.764
						C1203.957,1619.723,1200.889,1622.12,1199.663,1626.487z"/>
					<path style="fill:#B1C5E5;" d="M1268.238,1639.998v13.263h-10.418c-9.723,0-15.632-5.943-15.632-15.713v-16.589h-8.047v-3.54
						l19.697-20.975h3.111v12.854h11.045v11.662h-10.663v13.991c0,3.148,1.9,5.048,5.095,5.048H1268.238z"/>
					<path style="fill:#B1C5E5;" d="M1275.307,1609.296h15.143v43.964h-15.143V1609.296z M1275.423,1590.944h14.911v12.851h-14.911
						V1590.944z"/>
					<path style="fill:#B1C5E5;" d="M1343.433,1626.453v26.808h-15.143v-24.715c0-5.117-1.922-7.656-5.733-7.656
						c-4.722,0-7.439,3.298-7.439,8.894v23.477h-15.143v-43.964h10.624l2.08,4.534c3.274-3.648,8.155-5.834,13.839-5.834
						C1336.728,1607.997,1343.433,1615.253,1343.433,1626.453z"/>
					<path style="fill:#B1C5E5;" d="M1397.956,1609.298v39.079c0,13.816-9.044,22.375-23.566,22.375
						c-12.476,0-21.209-6.291-23.232-16.71h14.613c1.049,2.938,4.801,4.521,8.479,4.521c5.074,0,9.153-3.224,9.153-8.452v-1.313
						c-3.305,2.097-7.229,3.301-11.472,3.301c-12.605,0-21.97-9.378-21.97-22.098c0-12.535,9.365-22.11,21.97-22.11
						c5.321,0,10.14,1.909,13.867,5.095l1.92-3.689L1397.956,1609.298z M1383.796,1630.001c0-5.553-3.9-9.582-9.351-9.582
						c-5.437,0-9.385,4.029-9.385,9.582c0,5.601,3.9,9.63,9.385,9.63C1379.883,1639.632,1383.796,1635.602,1383.796,1630.001z"/>
					<path style="fill:#B1C5E5;" d="M1406.964,1639.193h14.69v14.068h-14.69V1639.193z"/>
					<path style="fill:#B1C5E5;" d="M1430.086,1639.193h14.69v14.068h-14.69V1639.193z"/>
				</g>
				<g>
					
						<ellipse transform="matrix(0.7071 -0.7071 0.7071 0.7071 -507.4896 1244.2852)" style="fill:#F56990;" cx="1248.24" cy="1234.737" rx="174.825" ry="174.825"/>
					<g>
						
							<rect x="1226.876" y="1126.462" transform="matrix(0.7071 0.7071 -0.7071 0.7071 1238.6947 -520.9931)" style="fill:#FFFFFF;" width="42.728" height="216.55"/>
						
							<rect x="1226.876" y="1126.462" transform="matrix(-0.7071 0.7071 -0.7071 -0.7071 3003.97 1225.1826)" style="fill:#FFFFFF;" width="42.728" height="216.55"/>
					</g>
				</g>
			</g>
		</g>
	</g>
</g>
</svg>
