<svg xmlns="http://www.w3.org/2000/svg" viewBox="0 0 271.11 164.05"><defs><style>.cls-1{fill:#fff;}.cls-2{fill:#f6b63e;}</style></defs><g id="Capa_2" data-name="Capa 2"><g id="Capa_1-2" data-name="Capa 1"><path class="cls-1" d="M157.17,159.22C105,174.87,48.44,151.47,22.69,103.56a10,10,0,1,1,17.56-9.44,95.25,95.25,0,0,0,179-48.93,10,10,0,1,1,19.92-.8A115.08,115.08,0,0,1,157.17,159.22Z"/><circle class="cls-2" cx="24.77" cy="89.39" r="24.76"/><path class="cls-2" d="M209.73,58.44a7.1,7.1,0,0,1-4.8-2.74L190.81,37.37A7.52,7.52,0,0,1,192,27a7.07,7.07,0,0,1,10.1,1.19l9.67,12.55,45.14-36.6A7.06,7.06,0,0,1,267,5.32a7.51,7.51,0,0,1-1.21,10.37L215,56.88A7.08,7.08,0,0,1,209.73,58.44Z"/><path class="cls-2" d="M211.64,61a9.08,9.08,0,0,1-2.21,0h0a9.61,9.61,0,0,1-6.52-3.71L188.8,38.92A10.09,10.09,0,0,1,190.43,25a9.6,9.6,0,0,1,13.71,1.61l8.08,10.49,43.12-35a9.61,9.61,0,0,1,13.71,1.61,10.07,10.07,0,0,1-1.62,13.88l-50.8,41.19A9.53,9.53,0,0,1,211.64,61ZM196,28a4.51,4.51,0,0,0-2.37,1,5,5,0,0,0-.81,6.85l14.12,18.33A4.53,4.53,0,0,0,210,55.92h0a4.55,4.55,0,0,0,3.41-1l50.8-41.19a5,5,0,0,0,.8-6.85,4.55,4.55,0,0,0-6.5-.76L211.38,44.35,200.12,29.74A4.5,4.5,0,0,0,196,28Z"/></g></g></svg>